<?xml version="1.0" standalone="no"?>
<!DOCTYPE svg PUBLIC "-//W3C//DTD SVG 20010904//EN"
 "http://www.w3.org/TR/2001/REC-SVG-20010904/DTD/svg10.dtd">
<svg version="1.0" xmlns="http://www.w3.org/2000/svg"
 width="480.000000pt" height="480.000000pt" viewBox="0 0 480.000000 480.000000"
 preserveAspectRatio="xMidYMid meet">
<metadata>
Created by potrace 1.11, written by Peter Selinger 2001-2013
</metadata>
<g transform="translate(0.000000,480.000000) scale(0.100000,-0.100000)"
fill="#000000" stroke="none">
<path d="M654 3418 c-318 -552 -578 -1008 -578 -1015 1 -6 262 -462 580 -1012
l579 -1001 1165 0 1165 0 579 1001 c318 551 579 1006 580 1013 0 6 -260 462
-578 1014 l-580 1002 -1166 0 -1166 0 -580 -1002z m3222 -154 c269 -466 489
-852 489 -858 0 -6 -220 -393 -489 -859 l-490 -847 -986 0 -986 0 -490 846
c-269 466 -489 852 -489 858 0 6 220 393 489 859 l490 847 986 0 986 0 490
-846z"/>
<path d="M1461 3209 c-250 -29 -423 -136 -508 -314 -33 -70 -37 -88 -41 -179
-7 -167 33 -279 139 -388 131 -134 349 -184 624 -143 55 8 108 18 118 21 17 5
18 -11 15 -358 -3 -409 -3 -404 -79 -447 -30 -17 -63 -26 -116 -29 -69 -4 -73
-6 -73 -28 l0 -24 410 0 410 0 0 25 c0 23 -3 25 -52 25 -78 0 -128 18 -169 59
-31 30 -38 46 -44 91 -3 30 -5 388 -3 795 3 834 -1 784 80 823 24 12 76 24
116 28 67 6 72 8 72 30 l0 24 -412 -1 c-227 -1 -447 -5 -487 -10z m244 -109
c39 -6 78 -13 88 -16 16 -5 17 -31 15 -402 l-3 -397 -85 -13 c-211 -32 -347
21 -433 169 -95 161 -68 414 58 548 53 56 113 90 195 107 70 16 80 16 165 4z"/>
<path d="M2440 3196 c0 -22 5 -24 72 -31 118 -11 166 -42 187 -120 14 -50 15
-1491 1 -1550 -17 -77 -102 -125 -220 -125 -36 0 -40 -3 -40 -25 l0 -25 410 0
410 0 0 24 c0 22 -5 23 -76 29 -51 5 -89 14 -116 29 -73 41 -73 38 -76 446 -3
347 -2 363 15 358 116 -34 388 -41 492 -12 243 67 390 254 391 496 0 189 -107
359 -282 444 -152 74 -255 86 -770 86 l-398 0 0 -24z m806 -97 c200 -37 324
-203 324 -434 0 -212 -130 -376 -315 -400 -45 -6 -194 7 -252 22 l-23 5 0 393
0 394 53 10 c112 22 140 23 213 10z"/>
</g>
</svg>
